# xmcd CD database file
# Copyright (C) 1995 Ti Kan
#
# Track frame offsets:
#	182
#	13022
#	27150
#	41135
#	58627
#	69977
#	82085
#	99242
#	115302
#	149790
#	161400
#	179777
#	193340
#	203760
#	220107
#	233362
#	245677
#	260002
#	277360
#	292237
#	306232
#	321212
#	339562
#
# Disc length: 4711 seconds
#
# Revision: 1
# Processed by: cddbd v1.4PL0 Copyright (c) Steve Scherf et al.
# Submitted via: NotifyCDPlayer 1.60beta16
#
DISCID=6f126517
DTITLE=Various Artist - Vinyl Junkie Country
DYEAR=1900
DGENRE=
TTITLE0=Turn Me Loose and Let Me Swing - Willie Nelson/Curtis Potter
TTITLE1=Brand New Ways - Don McCalister Jr. and His Cowboy Jazz Revue
TTITLE2=Black Rose - Barrence Whitfield/Tom Russel
TTITLE3=Midnight Ride - Jimmy Roy's 5 Star Hillbillies
TTITLE4=She Makes The Angels Cry - Rick Boussard
TTITLE5=Undying Love - Billy Swan/Van Duren
TTITLE6=Just To Hear Your Voice - Toni Price
TTITLE7=Corazon Viajero (Wandering Heart) - Tish Hinojosa
TTITLE8=Monterey - Wes McGhee
TTITLE9=Yeah, Yeah, Yeah! - The Blazers
TTITLE10=Prairie Blues - Pinto Bennett and His Famous Motel Cowboys
TTITLE11=Friends - The Lost Gonzo Band
TTITLE12=I Got My Baby Back - Rattlesnake Annie
TTITLE13=Walkin' On The Moon - Katy Moffat
TTITLE14=No Place To Feel That Way Anymore - Townes Van Zandt
TTITLE15=Fool - Barb Donovan
TTITLE16=Ain't Licked Yet - Dirk Hamilton
TTITLE17=I Don't Fell That Way Anymore - Charlie Robinson
TTITLE18=Fool - The Picketts
TTITLE19=A Fool Such As I - Kathy Chiavola
TTITLE20=Door Number One - Michael Fracasso/Lucinda Williams
TTITLE21=If You Were A Bluebird - Butch Hancock
TTITLE22=Pack Up Your Lies - Celinda Pink
EXTD=Vinyl Junkie 1995\nVJCD1
EXTT0=
EXTT1=
EXTT2=
EXTT3=
EXTT4=
EXTT5=
EXTT6=
EXTT7=
EXTT8=
EXTT9=
EXTT10=
EXTT11=
EXTT12=
EXTT13=
EXTT14=
EXTT15=
EXTT16=
EXTT17=
EXTT18=
EXTT19=
EXTT20=
EXTT21=
EXTT22=
PLAYORDER=
